<?xml version="1.0" encoding="UTF-8"?><svg id="Layer_2" xmlns="http://www.w3.org/2000/svg" viewBox="0 0 313.02 379.06"><defs><style>.cls-1{fill:none;stroke:#000;stroke-linecap:round;stroke-linejoin:round;stroke-width:24px;}</style></defs><path class="cls-1" d="M29.85,120.06l13.09,230.96c.51,9,7.96,16.04,16.97,16.04H251.85c8.99,0,16.42-7,16.97-15.97l14.03-231.03H29.85Z"/><path class="cls-1" d="M32,58.47h249.02c11.04,0,20,8.96,20,20v35.6c0,3.31-2.69,6-6,6H18c-3.31,0-6-2.69-6-6v-35.6c0-11.04,8.96-20,20-20Z"/><path class="cls-1" d="M132,12h49.53c13.25,0,24,10.75,24,24v22.47H108v-22.47c0-13.25,10.75-24,24-24Z"/><line class="cls-1" x1="156.51" y1="168.1" x2="156.51" y2="320.78"/><line class="cls-1" x1="216.88" y1="168.1" x2="216.88" y2="320.78"/><line class="cls-1" x1="97.78" y1="168.1" x2="97.78" y2="320.78"/></svg>